<?xml version="1.0" encoding="utf-8"?>
<!-- Generator: Adobe Illustrator 27.5.0, SVG Export Plug-In . SVG Version: 6.00 Build 0)  -->
<svg version="1.1" xmlns="http://www.w3.org/2000/svg" xmlns:xlink="http://www.w3.org/1999/xlink" x="0px" y="0px"
	 viewBox="0 0 500 500" style="enable-background:new 0 0 500 500;" xml:space="preserve">
<g id="BACKGROUND">
	<path style="opacity:0.2;fill:#F8AB74;" d="M73.921,392.893c-66.146-61.435-57.845-165.129-26.954-199.92
		c30.891-34.791,83.695-58.163,108.801-97.511c25.105-39.348,55.871-69.04,119.889-57.882
		c64.018,11.158,68.805,59.332,90.884,86.866c22.079,27.534,106.733,34.321,111.091,111.197
		c4.358,76.877-48.135,82.982-69.835,104.627c-21.7,21.645-48.899,114.921-124.339,124.822
		C191.007,477.226,129.9,444.885,73.921,392.893z"/>
</g>
<g id="OBJECTS">
	<g>
		<g>
			<rect x="54.88" y="99.202" style="fill:#91C4FB;" width="337.827" height="337.827"/>
			<rect x="54.88" y="82.234" style="fill:#E4E7FF;" width="337.827" height="337.827"/>
			<rect x="54.88" y="82.234" style="fill:#7371FC;" width="337.827" height="58.823"/>
			<g>
				<circle style="fill:#443DC3;" cx="85.729" cy="104.797" r="10.849"/>
				<path style="fill:#FE814B;" d="M85.729,108.784L85.729,108.784c-2.722,0-4.929-2.207-4.929-4.929V56.544
					c0-2.722,2.207-4.929,4.929-4.929l0,0c2.722,0,4.929,2.207,4.929,4.929v47.311C90.658,106.577,88.451,108.784,85.729,108.784z"
					/>
			</g>
			<g>
				<circle style="fill:#443DC3;" cx="120.245" cy="104.797" r="10.849"/>
				<path style="fill:#FE814B;" d="M120.245,108.784L120.245,108.784c-2.722,0-4.929-2.207-4.929-4.929V56.544
					c0-2.722,2.207-4.929,4.929-4.929l0,0c2.722,0,4.929,2.207,4.929,4.929v47.311C125.174,106.577,122.967,108.784,120.245,108.784
					z"/>
			</g>
			<g>
				<circle style="fill:#443DC3;" cx="154.761" cy="104.797" r="10.849"/>
				<path style="fill:#FE814B;" d="M154.761,108.784L154.761,108.784c-2.722,0-4.929-2.207-4.929-4.929V56.544
					c0-2.722,2.207-4.929,4.929-4.929l0,0c2.722,0,4.929,2.207,4.929,4.929v47.311C159.69,106.577,157.484,108.784,154.761,108.784z
					"/>
			</g>
			<g>
				<circle style="fill:#443DC3;" cx="189.278" cy="104.797" r="10.849"/>
				<path style="fill:#FE814B;" d="M189.278,108.784L189.278,108.784c-2.722,0-4.929-2.207-4.929-4.929V56.544
					c0-2.722,2.207-4.929,4.929-4.929l0,0c2.722,0,4.929,2.207,4.929,4.929v47.311C194.207,106.577,192,108.784,189.278,108.784z"/>
			</g>
			<g>
				<circle style="fill:#443DC3;" cx="223.794" cy="104.797" r="10.849"/>
				<path style="fill:#FE814B;" d="M223.794,108.784L223.794,108.784c-2.722,0-4.929-2.207-4.929-4.929V56.544
					c0-2.722,2.207-4.929,4.929-4.929l0,0c2.722,0,4.929,2.207,4.929,4.929v47.311C228.723,106.577,226.516,108.784,223.794,108.784
					z"/>
			</g>
			<g>
				<circle style="fill:#443DC3;" cx="258.31" cy="104.797" r="10.849"/>
				<path style="fill:#FE814B;" d="M258.31,108.784L258.31,108.784c-2.722,0-4.929-2.207-4.929-4.929V56.544
					c0-2.722,2.207-4.929,4.929-4.929l0,0c2.722,0,4.929,2.207,4.929,4.929v47.311C263.239,106.577,261.032,108.784,258.31,108.784z
					"/>
			</g>
			<g>
				<circle style="fill:#443DC3;" cx="292.826" cy="104.797" r="10.849"/>
				<path style="fill:#FE814B;" d="M292.826,108.784L292.826,108.784c-2.722,0-4.929-2.207-4.929-4.929V56.544
					c0-2.722,2.207-4.929,4.929-4.929l0,0c2.722,0,4.929,2.207,4.929,4.929v47.311C297.755,106.577,295.548,108.784,292.826,108.784
					z"/>
			</g>
			<g>
				<circle style="fill:#443DC3;" cx="327.342" cy="104.797" r="10.849"/>
				<path style="fill:#FE814B;" d="M327.342,108.784L327.342,108.784c-2.722,0-4.929-2.207-4.929-4.929V56.544
					c0-2.722,2.207-4.929,4.929-4.929l0,0c2.722,0,4.929,2.207,4.929,4.929v47.311C332.271,106.577,330.064,108.784,327.342,108.784
					z"/>
			</g>
			<g>
				<circle style="fill:#443DC3;" cx="361.858" cy="104.797" r="10.849"/>
				<path style="fill:#FE814B;" d="M361.858,108.784L361.858,108.784c-2.722,0-4.929-2.207-4.929-4.929V56.544
					c0-2.722,2.207-4.929,4.929-4.929l0,0c2.722,0,4.929,2.207,4.929,4.929v47.311C366.787,106.577,364.581,108.784,361.858,108.784
					z"/>
			</g>
			<rect x="74.88" y="192.909" style="fill:#E4E7FF;" width="36.292" height="36.292"/>
			<rect x="118.856" y="192.909" style="fill:#E4E7FF;" width="36.292" height="36.292"/>
			<rect x="162.832" y="192.909" style="fill:#E4E7FF;" width="36.292" height="36.292"/>
			<rect x="206.808" y="192.909" style="fill:#E4E7FF;" width="36.292" height="36.292"/>
			<rect x="250.784" y="192.909" style="fill:#E4E7FF;" width="36.292" height="36.292"/>
			<rect x="294.759" y="192.909" style="fill:#E4E7FF;" width="36.292" height="36.292"/>
			<rect x="338.735" y="192.909" style="fill:#E4E7FF;" width="36.292" height="36.292"/>
			<rect x="74.88" y="237.283" style="fill:#E4E7FF;" width="36.292" height="36.292"/>
			<rect x="118.856" y="237.283" style="fill:#E4E7FF;" width="36.292" height="36.292"/>
			<rect x="162.832" y="237.283" style="fill:#E4E7FF;" width="36.292" height="36.292"/>
			<rect x="206.808" y="237.283" style="fill:#E4E7FF;" width="36.292" height="36.292"/>
			<rect x="250.784" y="237.283" style="fill:#E4E7FF;" width="36.292" height="36.292"/>
			<rect x="294.759" y="237.283" style="fill:#E4E7FF;" width="36.292" height="36.292"/>
			<rect x="338.735" y="237.283" style="fill:#E4E7FF;" width="36.292" height="36.292"/>
			<rect x="74.88" y="281.656" style="fill:#E4E7FF;" width="36.292" height="36.292"/>
			<rect x="118.856" y="281.656" style="fill:#E4E7FF;" width="36.292" height="36.292"/>
			<rect x="162.832" y="281.656" style="fill:#E4E7FF;" width="36.292" height="36.292"/>
			<rect x="206.808" y="281.656" style="fill:#E4E7FF;" width="36.292" height="36.292"/>
			<rect x="250.784" y="281.656" style="fill:#E4E7FF;" width="36.292" height="36.292"/>
			<rect x="294.759" y="281.656" style="fill:#E4E7FF;" width="36.292" height="36.292"/>
			<rect x="338.735" y="281.656" style="fill:#E4E7FF;" width="36.292" height="36.292"/>
			<rect x="74.88" y="326.029" style="fill:#E4E7FF;" width="36.292" height="36.292"/>
			<rect x="118.856" y="326.029" style="fill:#E4E7FF;" width="36.292" height="36.292"/>
			<rect x="162.832" y="326.029" style="fill:#E4E7FF;" width="36.292" height="36.292"/>
			<rect x="206.808" y="326.029" style="fill:#E4E7FF;" width="36.292" height="36.292"/>
			<rect x="250.784" y="326.029" style="fill:#E4E7FF;" width="36.292" height="36.292"/>
			<rect x="294.759" y="326.029" style="fill:#E4E7FF;" width="36.292" height="36.292"/>
			<rect x="338.735" y="326.029" style="fill:#E4E7FF;" width="36.292" height="36.292"/>
			<g>
				<rect x="162.832" y="158.677" style="fill:#E4E7FF;" width="212.195" height="3.977"/>
				<rect x="162.832" y="166.68" style="fill:#E4E7FF;" width="212.195" height="3.977"/>
				<rect x="162.832" y="174.683" style="fill:#E4E7FF;" width="212.195" height="3.977"/>
			</g>
			<g>
				<rect x="74.88" y="376.549" style="fill:#E4E7FF;" width="300.146" height="3.977"/>
				<rect x="74.88" y="384.552" style="fill:#E4E7FF;" width="300.146" height="3.977"/>
				<rect x="74.88" y="392.555" style="fill:#E4E7FF;" width="300.146" height="3.977"/>
			</g>
			<rect x="77.372" y="158.677" style="fill:#FE814B;" width="77.775" height="19.983"/>
			<g>
				
					<line style="fill:none;stroke:#E4E7FF;stroke-width:0.5;stroke-miterlimit:10;" x1="54.88" y1="422.71" x2="392.465" y2="422.71"/>
				
					<line style="fill:none;stroke:#E4E7FF;stroke-width:0.5;stroke-miterlimit:10;" x1="54.88" y1="426.543" x2="392.465" y2="426.543"/>
				
					<line style="fill:none;stroke:#E4E7FF;stroke-width:0.5;stroke-miterlimit:10;" x1="54.88" y1="430.377" x2="392.465" y2="430.377"/>
				
					<line style="fill:none;stroke:#E4E7FF;stroke-width:0.5;stroke-miterlimit:10;" x1="54.88" y1="434.21" x2="392.465" y2="434.21"/>
			</g>
		</g>
		<g>
			<g>
				<path style="fill:#32338C;" d="M172.24,196.876c1.003,1.902,2.079,3.733,3.183,5.56l3.291,5.473l6.576,10.922l-3.674,0.025
					c3.634-7.818,7.642-15.429,12.032-22.84c2.199-3.702,4.485-7.358,6.943-10.914c2.443-3.563,5.006-7.064,7.888-10.34
					c-1.595,4.057-3.318,8.004-5.123,11.91c-1.788,3.913-3.673,7.77-5.615,11.596c-3.891,7.646-8.027,15.168-12.438,22.534
					l-2.033,3.394l-1.641-3.369c-0.943-1.936-1.854-3.866-2.735-5.821c-0.883-1.952-1.71-3.931-2.544-5.906
					c-0.826-1.979-1.574-3.997-2.31-6.016C173.343,201.049,172.661,198.992,172.24,196.876z"/>
			</g>
			<g>
				<path style="fill:#FE814B;" d="M170.568,287.236c1.003,1.902,2.079,3.733,3.183,5.56l3.291,5.473l6.576,10.922l-3.674,0.025
					c3.634-7.819,7.642-15.429,12.032-22.84c2.199-3.702,4.485-7.358,6.943-10.915c2.443-3.563,5.006-7.064,7.889-10.34
					c-1.596,4.057-3.318,8.004-5.123,11.91c-1.788,3.913-3.673,7.77-5.615,11.596c-3.891,7.646-8.027,15.168-12.438,22.534
					l-2.033,3.394l-1.641-3.369c-0.943-1.936-1.853-3.866-2.735-5.821c-0.883-1.952-1.71-3.931-2.544-5.906
					c-0.826-1.979-1.574-3.997-2.31-6.017C171.671,291.409,170.99,289.352,170.568,287.236z"/>
			</g>
			<g>
				<path style="fill:#7371FC;" d="M83.396,319.047c3.227,3.966,6.102,8.022,8.915,12.115c2.803,4.094,5.507,8.227,8.175,12.377
					c5.334,8.299,10.477,16.685,15.775,24.98c-6.277-7.585-12.419-15.287-18.703-22.836c-3.141-3.774-6.311-7.518-9.542-11.177
					c-3.231-3.65-6.528-7.25-9.943-10.526L83.396,319.047z"/>
			</g>
			<g>
				<path style="fill:#7371FC;" d="M84.452,355.721c4.559-8.352,9.49-16.466,14.811-24.283c2.658-3.91,5.403-7.751,8.239-11.516
					c2.833-3.771,5.789-7.42,8.706-11.105c-2.418,4.026-4.883,8.029-7.19,12.102c-2.314,4.072-4.522,8.196-6.629,12.362
					c-4.219,8.329-7.992,16.852-11.354,25.498L84.452,355.721z"/>
			</g>
			<g>
				<path style="fill:none;stroke:#32338C;stroke-miterlimit:10;" d="M139.784,232.366c-5.857-1.781-12.491-0.036-17.186,3.893
					c-4.695,3.929-7.523,9.818-8.386,15.88c-0.557,3.913-0.318,8.031,1.347,11.616c2.857,6.149,9.445,9.785,16.046,11.333
					c8.146,1.91,17.452,0.973,23.707-4.583c6.249-5.551,8.274-14.994,5.907-23.01c-1.896-6.422-6.677-12.216-13.087-14.15
					c-2.927-0.883-6.051-0.947-9.091-0.619c-6.66,0.718-13.23,3.397-17.928,8.171c-4.699,4.774-7.314,11.751-6.122,18.342
					c0.668,3.691,2.474,7.133,4.937,9.961c7.728,8.872,22.3,10.73,32.007,4.081c9.707-6.649,13.239-20.908,7.758-31.32
					c-2.677-5.085-7.593-9.317-13.323-9.754c-4.333-0.33-8.917,1.452-12.913-0.255"/>
				<polygon style="fill:#32338C;" points="133.642,265.121 134.973,243.763 150.509,262.493 124.986,254.442 150.509,246.597 				
					"/>
				<path style="fill:none;stroke:#32338C;stroke-width:2;stroke-miterlimit:10;" d="M136.954,275.768
					c-2.285,17.911,4.452,36.515,16.852,49.641c12.4,13.126,30.072,20.824,48.079,22.17c18.006,1.346,35.736-3.191,51.406-12.162"/>
				<path style="fill:none;stroke:#32338C;stroke-width:2.3628;stroke-miterlimit:10;" d="M237.158,332.829
					c5.34,1.031,16.133,2.414,16.133,2.414l-8.066,12.568"/>
			</g>
		</g>
	</g>
	<g>
		<path style="fill:#32338C;" d="M322.707,500h44.665l-1.662-65.684L384.824,500h52.281c-2.635-30.979-6.06-65.668-9.647-86.875
			c-7.689-45.46-24.998-54.531-24.998-54.531l-63.053-2.089c0,0-23.332,31.164-22.341,73.114
			C317.485,447.385,319.975,474.565,322.707,500z"/>
		<g>
			<path style="fill:#FE5228;" d="M321.917,306.198c-3.745-0.516-7.535-0.699-11.311-0.501c-0.904,0.047-1.845,0.127-2.622,0.591
				c-1.264,0.755-1.775,2.325-1.965,3.786c-0.496,3.795,0.486,7.62,1.637,11.27c0.247,0.783,0.51,1.565,0.778,2.347
				c2.339-0.928,4.516-2.284,6.355-3.993C318.587,316.169,320.967,311.313,321.917,306.198z"/>
			<path style="fill:#FE814B;" d="M357.37,260.061c-0.339-1.377-1.144-4.78-2.726-5.253c-1.361-0.407-4.051,1.61-5.152,2.277
				c-7.423,4.496-12.995,11.639-16.776,19.356c-4.609,9.405-6.84,19.765-9.03,30.007c-0.587-0.099-1.179-0.167-1.769-0.248
				c-0.95,5.115-3.33,9.971-7.128,13.5c-1.839,1.709-4.017,3.065-6.355,3.993c4.822,14.055,13.087,27.594,26.222,34.365
				c2.161,1.114,4.835,2.011,6.933,0.783c2.153-1.261,2.634-4.106,2.916-6.584c3.035-26.599,8.985-52.779,12.771-79.282
				C357.879,268.749,358.405,264.26,357.37,260.061z"/>
		</g>
		<path style="fill:#7371FC;" d="M429.947,267.091l-40.84-18.468c0,0-33.545-0.297-42.537,10.116
			c-8.992,10.413-16.13,33.323-16.13,33.323l8.967,64.442c0,0,3.519,11.061,22.488,15.808c18.969,4.748,40.566-13.719,40.566-13.719
			L429.947,267.091z"/>
		<g>
			
				<rect x="419.993" y="327.222" transform="matrix(0.8858 0.4641 -0.4641 0.8858 209.8142 -157.5009)" style="fill:#E4E7FF;" width="9.731" height="40.497"/>
			
				<rect x="428.612" y="331.739" transform="matrix(0.8857 0.4642 -0.4642 0.8857 212.9064 -160.9903)" style="fill:#D0CDFF;" width="9.731" height="40.497"/>
			
				<rect x="437.231" y="336.256" transform="matrix(0.8858 0.4641 -0.4641 0.8858 215.9706 -164.4677)" style="fill:#E4E7FF;" width="9.731" height="40.497"/>
			
				<rect x="445.85" y="340.772" transform="matrix(0.8858 0.4641 -0.4641 0.8858 219.0549 -167.9537)" style="fill:#D0CDFF;" width="9.731" height="40.497"/>
			<path style="fill:#FE814B;" d="M468.755,393.334l-23.128-12.12l18.797-35.87l23.127,12.119
				c6.269,3.285,8.687,11.029,5.402,17.298l-6.901,13.171C482.767,394.2,475.023,396.618,468.755,393.334z"/>
			<g>
				<path style="fill:#32338C;" d="M213.742,224.732l-28.896-3.031l19.8,23.038c0.585-0.734,1.23-1.418,1.777-2.184
					C210.184,237.283,212.888,231.103,213.742,224.732z"/>
				<path style="fill:#FEC5B7;" d="M239.391,227.423l-25.649-2.691c-0.854,6.371-3.558,12.551-7.318,17.822
					c-0.547,0.767-1.192,1.45-1.777,2.184l15.947,18.555L239.391,227.423z"/>
			</g>
			<g>
				
					<rect x="319.73" y="191.137" transform="matrix(0.4642 -0.8858 0.8858 0.4642 -91.243 446.5829)" style="fill:#7355FC;" width="7.498" height="215.134"/>
				
					<rect x="314.495" y="203.376" transform="matrix(0.4641 -0.8858 0.8858 0.4641 -105.5207 447.4616)" style="fill:#7355FC;" width="5.141" height="215.134"/>
				
					<rect x="316.249" y="197.779" transform="matrix(0.4642 -0.8858 0.8858 0.4642 -98.9906 447.06)" style="fill:#7371FC;" width="7.498" height="215.134"/>
				
					<rect x="323.21" y="184.495" transform="matrix(0.4641 -0.8858 0.8858 0.4641 -83.4912 446.1175)" style="fill:#7371FC;" width="7.498" height="215.134"/>
				
					<rect x="326.69" y="177.853" transform="matrix(0.4642 -0.8858 0.8858 0.4642 -75.7473 445.6306)" style="fill:#7355FC;" width="7.498" height="215.134"/>
				
					<rect x="330.743" y="172.158" transform="matrix(0.4642 -0.8858 0.8858 0.4642 -69.1029 445.2225)" style="fill:#7371FC;" width="5.362" height="215.134"/>
			</g>
			<polygon style="fill:#32338C;" points="402.916,313.113 335.721,277.901 404.796,308.059 			"/>
		</g>
		<g>
			<path style="fill:#32338C;" d="M354.399,213.61c-2.447,0.846-4.997,1.582-7.582,1.436c-2.585-0.146-5.239-1.32-6.566-3.543
				c-1.82-3.048-0.621-7.142,1.739-9.794c-4.995-0.738-9.968-4.646-11.125-9.561s0.955-10.436,5.096-13.324
				c0.452-0.315,0.956-0.639,1.137-1.16c0.168-0.481,0.015-1.008-0.118-1.5c-1.73-6.387,0.176-13.631,4.825-18.34
				c4.649-4.709,11.868-6.707,18.277-5.059c0.526-4.894,3.971-9.709,8.021-12.505c4.05-2.796,9.028-4.053,13.949-4.164
				c3.707-0.084,7.504,0.48,10.77,2.236c3.266,1.755,5.944,4.816,6.668,8.452c3.719-3.507,10.132-3.625,14.779-1.497
				c3.915,1.793,7.324,4.825,9.199,8.701c1.875,3.876,2.101,8.603,0.241,12.486c5.55,0.288,11.06,4.395,13.272,9.493
				c2.212,5.098,0.618,11.76-4.033,14.802c1.919,1.277,3.501,3.321,4.632,5.329c1.097,1.948,1.36,4.254,1.386,6.49
				c0.023,1.969-0.127,3.967-0.784,5.823c-1.397,3.943-5.212,6.912-9.377,7.299c0.552,1.894,0.041,3.867-0.908,5.596
				c-0.949,1.729-2.408,3.132-4,4.297c-1.296,0.949-2.709,1.765-4.245,2.233c-4.359,1.329-9.493-0.565-11.944-4.406L354.399,213.61z
				"/>
			<g>
				<path style="fill:#FE814B;" d="M391.312,246.655c-0.682,0.715-1.418,1.378-2.206,1.969c-2.698,2.021-5.884,3.312-9.141,4.182
					c-2.415,0.645-4.94,1.071-7.414,0.711c-0.275-0.04-0.55-0.095-0.823-0.157c0.061,0.493,0.181,0.973,0.422,1.405
					c0.76,1.358,2.426,1.891,3.957,2.175c4.114,0.762,8.405,0.561,12.429-0.584c0.438-0.125,0.9-0.278,1.183-0.635
					c0.289-0.364,0.329-0.86,0.361-1.323C390.269,251.731,390.737,249.173,391.312,246.655z"/>
				<path style="fill:#FE5228;" d="M379.966,252.805c3.257-0.87,6.443-2.16,9.141-4.182c0.788-0.59,1.524-1.254,2.206-1.969
					c0.948-4.153,2.188-8.201,2.945-12.449c-4.184-1.554-11.707,2.046-15.065,4.493c-4.327,3.153-7.43,8.196-7.52,13.55
					c-0.006,0.369,0.011,0.743,0.057,1.111c0.273,0.062,0.547,0.117,0.823,0.157C375.025,253.876,377.55,253.45,379.966,252.805z"/>
			</g>
			<g>
				<path style="fill:#32338C;" d="M362.248,191.462c4.892-1.996,8.201-7,8.895-12.238c1.275,3.888,2.239,8.718,6.013,10.298
					c2.114,0.885,4.526,0.758,6.756,0.231c3.138-0.742,6.092-2.254,8.529-4.367c-0.17,3.159-1.071,8.118,0.77,10.691
					c0.71,0.992,1.667,1.785,2.69,2.449c2.817,1.829,6.221,2.74,9.575,2.563c-3.715,4.111-5.985,10.464-4.148,15.692
					c0.857,2.439,2.373,4.616,4.297,6.341c0.372-0.662,0.756-1.319,1.106-1.991c2.618-5.03,4.728-10.393,5.484-16.013
					c0.755-5.62,0.085-11.533-2.585-16.535c-3.762-7.046-11.082-11.592-18.687-14.035c-3.715-1.193-7.618-1.966-11.511-1.692
					c-5.182,0.365-12.425,2.344-16.238,6.189c-2.376,2.396-4.318,5.443-5.86,8.685c-0.682,1.433-1.278,2.905-1.806,4.375
					C357.769,192.516,360.14,192.322,362.248,191.462z"/>
				<path style="fill:#FE814B;" d="M401.327,216.781c-1.836-5.228,0.433-11.581,4.148-15.692c-3.355,0.177-6.758-0.734-9.575-2.563
					c-1.023-0.664-1.98-1.457-2.69-2.449c-1.84-2.573-0.939-7.532-0.77-10.691c-2.437,2.112-5.39,3.624-8.529,4.367
					c-2.23,0.527-4.642,0.654-6.756-0.231c-3.774-1.58-4.738-6.41-6.013-10.298c-0.694,5.238-4.003,10.242-8.895,12.238
					c-2.108,0.86-4.479,1.055-6.722,0.644c-0.607,1.69-1.122,3.38-1.531,5.009c-1.65,6.566-1.976,13.404-1.703,20.168
					c0.299,7.38,1.388,14.978,5.246,21.276c3.858,6.298,11.04,11.014,18.368,10.095c2.733-0.343,5.323-1.425,7.752-2.725
					c8.945-4.788,15.981-12.564,21.15-21.337c0.285-0.484,0.542-0.982,0.817-1.471C403.7,221.397,402.184,219.22,401.327,216.781z"
					/>
			</g>
			<g>
				<path style="fill:#FE814B;" d="M402.234,213.774c-1.449,2.758-1.854,5.968-1.683,9.079c0.132,2.401,0.77,5.06,2.804,6.342
					c1.503,0.947,3.483,0.896,5.124,0.216c1.642-0.68,2.993-1.913,4.175-3.238c1.785-2.001,3.294-4.321,3.933-6.925
					c0.639-2.604,0.322-5.522-1.253-7.691c-1.538-2.118-4.492-3.891-7.087-3.065C405.635,209.323,403.495,211.374,402.234,213.774z"
					/>
				<g>
					<path style="fill:#32338C;" d="M413.755,214.234c-0.651-1.099-1.901-1.656-3.089-1.664c-1.202-0.049-2.34,0.521-3.2,1.334
						c-0.876,0.814-1.528,1.847-1.975,2.979c-0.463,1.129-0.73,2.342-1.05,3.557l-0.701-0.406c0.857-0.796,2.051-1.396,3.332-1.151
						c0.623,0.118,1.205,0.5,1.575,0.998c0.376,0.502,0.562,1.1,0.615,1.692c0.124,1.199-0.465,2.395-1.36,3.092
						c-0.898,0.707-1.987,1.086-3.074,1.184c1.053-0.271,2.07-0.731,2.813-1.476c0.758-0.725,1.172-1.737,1.002-2.73
						c-0.138-0.983-0.806-1.856-1.717-1.992c-0.907-0.145-1.9,0.31-2.603,0.991l-1.029,0.996l0.328-1.402
						c0.286-1.224,0.631-2.462,1.137-3.658c0.509-1.187,1.228-2.344,2.253-3.191c1.01-0.839,2.345-1.398,3.681-1.253
						C411.99,212.277,413.285,213.029,413.755,214.234z"/>
				</g>
			</g>
			<path style="fill:#32328C;" d="M365.682,208.344c-0.123,1.623-1.067,2.875-2.11,2.797c-1.042-0.079-1.788-1.458-1.666-3.082
				c0.123-1.623,1.067-2.875,2.11-2.797C365.059,205.341,365.805,206.721,365.682,208.344z"/>
			<path style="fill:#32328C;" d="M386.712,211.387c-0.123,1.623-1.067,2.876-2.11,2.797s-1.788-1.459-1.665-3.082
				c0.122-1.623,1.067-2.875,2.11-2.797C386.089,208.384,386.835,209.764,386.712,211.387z"/>
			<g>
				<path style="fill:#32338C;" d="M358.442,201.072c0.392-0.947,0.968-1.827,1.674-2.633c0.714-0.799,1.585-1.498,2.594-2.018
					c0.505-0.262,1.022-0.544,1.577-0.762c0.555-0.212,1.159-0.277,1.75-0.176c0.59,0.101,1.169,0.31,1.679,0.661
					c0.51,0.338,0.965,0.793,1.239,1.438l-0.131,0.315c-0.625,0.271-1.109,0.451-1.556,0.607c-0.446,0.169-0.842,0.292-1.226,0.394
					c-0.383,0.103-0.753,0.128-1.156,0.088c-0.403-0.045-0.83-0.072-1.239,0c-0.821,0.148-1.663,0.421-2.493,0.807
					c-0.839,0.38-1.643,0.895-2.443,1.488L358.442,201.072z"/>
			</g>
			<g>
				<path style="fill:#32338C;" d="M391.029,205.338c-0.629-0.772-1.281-1.47-2-2.045c-0.709-0.579-1.458-1.052-2.216-1.398
					c-0.379-0.171-0.799-0.251-1.2-0.307c-0.4-0.061-0.753-0.177-1.098-0.371c-0.347-0.195-0.699-0.411-1.09-0.685
					c-0.394-0.262-0.819-0.555-1.357-0.973l-0.049-0.338c0.426-0.557,0.979-0.886,1.556-1.087c0.581-0.213,1.194-0.273,1.79-0.225
					c0.598,0.048,1.166,0.26,1.652,0.603c0.484,0.348,0.915,0.749,1.34,1.128c0.849,0.754,1.521,1.647,2.015,2.597
					c0.486,0.956,0.826,1.951,0.972,2.966L391.029,205.338z"/>
			</g>
			<g>
				<path style="opacity:0.4;fill:#F8AB74;" d="M362.921,221.823c-0.162,1.289-2.038,2.115-4.191,1.844
					c-2.153-0.27-3.767-1.534-3.605-2.823c0.162-1.289,2.038-2.115,4.191-1.844C361.468,219.27,363.083,220.534,362.921,221.823z"/>
				<path style="opacity:0.4;fill:#F8AB74;" d="M389.952,225.216c-0.162,1.289-2.038,2.115-4.191,1.844
					c-2.153-0.27-3.767-1.534-3.605-2.823c0.162-1.289,2.038-2.115,4.191-1.844C388.5,222.663,390.114,223.927,389.952,225.216z"/>
			</g>
			<g>
				<path style="fill:#32338C;" d="M374.118,206.025c0.097,2.292,0.097,4.682-0.855,6.911c-0.443,1.118-1.281,2.086-2.16,2.849
					c-0.871,0.779-1.773,1.479-2.355,2.369c-1.224,1.727-0.838,4.369,0.921,5.655c0.835,0.69,1.953,0.939,3.076,0.982
					c1.115,0.071,2.266-0.204,3.193-0.908c-0.799,0.857-2.012,1.263-3.191,1.327c-0.599,0.024-1.181-0.025-1.781-0.14
					c-0.598-0.134-1.173-0.379-1.682-0.729c-1.032-0.678-1.775-1.817-1.993-3.056c-0.224-1.232,0.039-2.559,0.75-3.606
					c0.718-1.035,1.697-1.739,2.551-2.477c0.88-0.722,1.573-1.551,2.08-2.544c0.513-0.984,0.804-2.091,1.003-3.211
					C373.898,208.325,373.987,207.174,374.118,206.025z"/>
			</g>
			<g>
				<path style="fill:#32338C;" d="M364.076,225.089c0.932,1.355,1.88,2.691,3.032,3.775c1.148,1.064,2.545,1.886,4.04,2.068
					c1.49,0.199,3.055-0.261,4.517-0.866c1.46-0.631,2.845-1.48,4.099-2.547c-0.983,1.322-2.286,2.436-3.778,3.218
					c-1.474,0.772-3.169,1.35-4.959,1.14c-1.775-0.24-3.32-1.235-4.449-2.494C365.432,228.12,364.683,226.612,364.076,225.089z"/>
			</g>
		</g>
		<g>
			<path style="fill:#FE814B;" d="M299.432,309.762c-1.528-2.817-1.793-6.165-1.488-9.355c0.341-3.565,1.431-7.194,3.871-9.815
				c0.594-0.638,1.608-1.222,2.261-0.644c0.428,0.378,0.41,1.04,0.343,1.607c-0.345,2.906-1.097,5.753-1.409,8.663
				c-0.312,2.91-0.149,5.977,1.227,8.56c0.196-4.426,0.526-9.035,2.761-12.86c0.647-1.108,1.466-2.147,2.55-2.835
				c0.41-0.26,0.964-0.462,1.359-0.179c0.297,0.213,0.377,0.614,0.419,0.977c0.109,0.932,0.125,1.874,0.049,2.809
				c0.441-0.837,0.906-1.702,1.661-2.272c0.755-0.571,1.889-0.757,2.632-0.171c0.88,0.694,0.81,2.025,0.659,3.135
				c0.651-1.081,2.009-1.687,3.249-1.45c0.881,1.62,0.378,3.605-0.032,5.403c-0.518,2.272-0.853,4.586-1,6.912
				c-0.089,1.393-0.134,2.87-0.899,4.038c-0.454,0.694-0.932,3.539-6.391,3.497c-2.214-0.017-4.404-0.791-6.462-1.458
				C302.494,313.577,300.578,311.876,299.432,309.762z"/>
			<g>
				<path style="fill:#32338C;" d="M311.42,296.374c-0.49,1.559-0.949,3.113-1.316,4.686c-0.358,1.575-0.668,3.156-0.874,4.754
					c-0.224,1.595-0.344,3.202-0.416,4.816c-0.064,1.614-0.033,3.234,0.025,4.868c-0.38-1.592-0.564-3.228-0.626-4.868
					c-0.069-1.642,0.032-3.289,0.243-4.919c0.229-1.628,0.568-3.243,1.071-4.807C310.022,299.336,310.633,297.809,311.42,296.374z"
					/>
			</g>
			<g>
				<path style="fill:#32338C;" d="M316.387,297.184c-0.309,1.452-0.606,2.89-0.827,4.339c-0.211,1.45-0.393,2.9-0.487,4.358
					c-0.112,1.457-0.136,2.918-0.13,4.383c0.014,1.466,0.106,2.932,0.207,4.413c-0.42-1.426-0.666-2.898-0.806-4.381
					c-0.149-1.484-0.146-2.98-0.049-4.469c0.115-1.487,0.322-2.97,0.678-4.418C315.322,299.96,315.772,298.536,316.387,297.184z"/>
			</g>
		</g>
		<path style="fill:#FE814B;" d="M395.665,335.15c4.283-15.735,19.836-58.151,29.011-67.278c2.489-2.476,6.697-0.9,8.772,1.932
			c2.075,2.832,2.211,6.61,2.053,10.118c-0.603,13.364-4.27,26.379-8.045,39.213c-4.928,16.756-29.737,46.462-33.199,45.278
			c-12.493-4.271-49.108-60.862-49.108-60.862l15.213-2.046L395.665,335.15z"/>
		<g>
			<path style="fill:#32338C;" d="M321.228,316.087c1.116,1.447,2.183,2.921,3.264,4.384l3.235,4.388l3.236,4.387
				c1.077,1.465,2.169,2.92,3.221,4.415c-1.3-1.286-2.512-2.651-3.692-4.043c-1.186-1.388-2.302-2.833-3.392-4.297
				c-1.075-1.475-2.126-2.968-3.1-4.512C323.018,319.27,322.073,317.708,321.228,316.087z"/>
		</g>
		<path style="fill:#FE814B;" d="M360.362,301.504l0.606-17.535c0.05-1.432-1.297-2.507-2.683-2.14l-0.68,0.18l-2.657-2.494
			c-0.549-0.516-1.33-0.704-2.054-0.495l-2.15,0.619l-3.142-2.21c-0.467-0.328-1.045-0.456-1.607-0.356l-1.786,0.32l-0.584-0.255
			c-1.412-0.617-2.994,0.417-2.993,1.958l0.003,10.811l4.513,13.642"/>
	</g>
	<g>
		<g>
			<path style="fill:#FE814B;" d="M422.626,131.069L422.626,131.069c2.632-6.069,7.596-10.912,13.845-13.507l0.194-0.08
				l-0.841-0.376c-5.857-2.614-10.514-7.225-13.082-12.953l-0.116-0.26l-0.649,1.28c-2.493,4.918-6.562,8.924-11.6,11.421
				l-1.791,0.887l0.108,0.044c5.997,2.472,10.828,7.016,13.553,12.747L422.626,131.069z"/>
			<path style="fill:#F8AB74;" d="M440.287,139.399L440.287,139.399c1.316-3.034,3.798-5.456,6.923-6.753l0.097-0.04l-0.421-0.188
				c-2.929-1.307-5.257-3.613-6.541-6.477l-0.058-0.13l-0.324,0.64c-1.246,2.459-3.281,4.462-5.8,5.71l-0.895,0.443l0.054,0.022
				c2.999,1.236,5.414,3.508,6.776,6.374L440.287,139.399z"/>
		</g>
		<g>
			<path style="fill:#FE814B;" d="M54.605,254.16L54.605,254.16c2.632-6.069,7.596-10.912,13.845-13.507l0.194-0.08l-0.841-0.375
				c-5.857-2.615-10.514-7.225-13.082-12.953l-0.116-0.26l-0.649,1.28c-2.493,4.918-6.562,8.924-11.6,11.421l-1.791,0.887
				l0.108,0.044c5.996,2.472,10.828,7.016,13.553,12.747L54.605,254.16z"/>
			<path style="fill:#F8AB74;" d="M72.266,262.491L72.266,262.491c1.316-3.034,3.798-5.456,6.923-6.754l0.097-0.04l-0.421-0.188
				c-2.929-1.307-5.257-3.613-6.541-6.476l-0.058-0.13l-0.324,0.64c-1.246,2.459-3.281,4.462-5.8,5.71l-0.896,0.443l0.054,0.022
				c2.999,1.236,5.414,3.508,6.777,6.374L72.266,262.491z"/>
		</g>
		<g>
			<path style="fill:#FE814B;" d="M273.439,474.57L273.439,474.57c-1.99-4.588-5.743-8.25-10.467-10.212l-0.147-0.061l0.636-0.284
				c4.428-1.977,7.949-5.463,9.89-9.793l0.088-0.196l0.491,0.968c1.884,3.718,4.961,6.747,8.77,8.634l1.354,0.671l-0.082,0.033
				c-4.534,1.869-8.186,5.305-10.246,9.637L273.439,474.57z"/>
			<path style="fill:#F8AB74;" d="M260.086,480.868L260.086,480.868c-0.995-2.294-2.871-4.125-5.234-5.106l-0.073-0.03l0.318-0.142
				c2.214-0.988,3.975-2.731,4.945-4.896l0.044-0.098l0.245,0.484c0.942,1.859,2.481,3.374,4.385,4.317l0.677,0.335l-0.041,0.017
				c-2.267,0.935-4.093,2.652-5.123,4.819L260.086,480.868z"/>
		</g>
	</g>
</g>
</svg>
